<?xml version="1.0" encoding="iso-8859-1"?>
<!-- Generator: Adobe Illustrator 19.0.0, SVG Export Plug-In . SVG Version: 6.00 Build 0)  -->
<svg version="1.1" id="Capa_1" xmlns="http://www.w3.org/2000/svg" xmlns:xlink="http://www.w3.org/1999/xlink" x="0px" y="0px"
	 viewBox="0 0 512 512" style="enable-background:new 0 0 512 512;" xml:space="preserve">
<rect x="71.23" y="15" style="fill:#FFD97D;" width="369.53" height="482"/>
<rect x="256" y="15" style="fill:#FFA538;" width="184.77" height="482"/>
<path style="fill:#09426D;" d="M440.767,512H71.233c-8.284,0-15-6.716-15-15V15c0-8.284,6.716-15,15-15h369.533
	c8.284,0,15,6.716,15,15v482C455.767,505.284,449.051,512,440.767,512z M86.233,482h339.533V30H86.233V482z"/>
<path style="fill:#012641;" d="M440.767,0H256v30h169.767v452H256v30h184.767c8.284,0,15-6.716,15-15V15
	C455.767,6.716,449.051,0,440.767,0z"/>
<path style="fill:#C7EFFF;" d="M304.2,96.4c-8.284,0-15,6.716-15,15v48.2c0,12.91-7.412,24.114-18.199,29.604V111.4
	c0-8.284-6.716-15-15-15s-15,6.716-15,15v77.804c-10.789-5.489-18.201-16.693-18.201-29.604v-48.2c0-8.284-6.716-15-15-15
	s-15,6.716-15,15v48.2c0,29.681,20.571,54.634,48.201,61.387V304.2c0,8.284,6.716,15,15,15s15-6.716,15-15v-83.213
	C298.63,214.233,319.2,189.28,319.2,159.6v-48.2C319.2,103.116,312.484,96.4,304.2,96.4z"/>
<path style="fill:#09426D;" d="M440.767,385.6H71.233c-8.284,0-15,6.716-15,15V497c0,8.284,6.716,15,15,15h369.533
	c8.284,0,15-6.716,15-15v-96.4C455.767,392.315,449.051,385.6,440.767,385.6z"/>
<path style="fill:#91E1FF;" d="M304.2,96.4c-8.284,0-15,6.716-15,15v48.2c0,12.91-7.412,24.114-18.199,29.604V111.4
	c0-8.284-6.716-15-15-15H256v222.799h0.001c8.284,0,15-6.716,15-15v-83.213C298.63,214.233,319.2,189.28,319.2,159.6v-48.2
	C319.2,103.116,312.484,96.4,304.2,96.4z"/>
<path style="fill:#012641;" d="M440.767,385.6H256V512h184.767c8.284,0,15-6.716,15-15v-96.4
	C455.767,392.315,449.051,385.6,440.767,385.6z"/>
<g>
</g>
<g>
</g>
<g>
</g>
<g>
</g>
<g>
</g>
<g>
</g>
<g>
</g>
<g>
</g>
<g>
</g>
<g>
</g>
<g>
</g>
<g>
</g>
<g>
</g>
<g>
</g>
<g>
</g>
</svg>
